<?xml version="1.0" encoding="utf-8"?>
<!-- Generator: Adobe Illustrator 16.0.0, SVG Export Plug-In . SVG Version: 6.00 Build 0)  -->
<!DOCTYPE svg PUBLIC "-//W3C//DTD SVG 1.1//EN" "http://www.w3.org/Graphics/SVG/1.1/DTD/svg11.dtd">
<svg version="1.1" id="Layer_1" xmlns="http://www.w3.org/2000/svg" xmlns:xlink="http://www.w3.org/1999/xlink" x="0px" y="0px"
	 width="144px" height="87px" viewBox="0 0 144 87" enable-background="new 0 0 144 87" xml:space="preserve">
<g>
	<defs>
		<rect id="SVGID_1_" width="144" height="87"/>
	</defs>
	<clipPath id="SVGID_2_">
		<use xlink:href="#SVGID_1_"  display="none" overflow="visible"/>
	</clipPath>
	<g clip-path="url(#SVGID_2_)">
		<path fill="#EE5800" d="M106.921,67.818c-4.639-1.938-6.229-2.293-6.22-4.094c0.011-1.676,2.236-2.221,4.337-2.221
			c1.853,0,4.108,0.681,4.171,1.99v1.832c0,0.199,0.156,0.366,0.363,0.366h6.324c0.197,0,0.365-0.157,0.365-0.366v-5.1
			c0-0.523-0.22-1.025-0.615-1.361c-1.33-1.162-4.877-3.602-11.045-3.602c-9.059,0-12.356,4.502-12.356,8.24
			c0,3.058,1.487,6.43,9.132,9.203c6.168,2.252,8.539,3.047,8.26,5.193c-0.229,1.707-2.902,2.221-5.035,2.23
			c-2.133,0-4.795-1.016-4.795-2.544v-1.612c0-0.199-0.156-0.367-0.363-0.367h-6.668c-0.197,0-0.363,0.158-0.363,0.367v4.701
			c0,0.439,0.156,0.858,0.437,1.184c1.206,1.393,5.013,4.785,13.251,4.313c7.28-0.408,11.159-4.701,11.159-8.209
			C117.259,73.933,115.086,71.242,106.921,67.818z"/>
		<path fill="#EE5800" d="M39.138,55.63c-8.04,0-14.551,6.774-14.551,15.12c0,8.345,6.511,15.119,14.551,15.119
			c8.04,0,14.551-6.774,14.551-15.119C53.689,62.404,47.178,55.63,39.138,55.63z M39.138,78.697c-3.9,0-7.062-3.561-7.062-7.947
			c0-4.388,3.162-7.947,7.062-7.947c3.9,0,7.063,3.56,7.063,7.947C46.201,75.137,43.039,78.697,39.138,78.697z"/>
		<path fill="#EE5800" d="M88.334,78.749h-1.976c-0.665,0-1.196-0.544-1.196-1.204V56.018c0-0.199-0.156-0.367-0.363-0.367h-6.418
			c-0.197,0-0.363,0.158-0.363,0.367v2.398c-2.133-1.738-4.723-2.766-7.521-2.766c-7.218,0-13.063,6.765-13.063,15.109
			c0,8.346,5.856,15.109,13.063,15.109c3.245,0,6.21-1.371,8.497-3.633v3.277c0,0.198,0.156,0.366,0.364,0.366h8.976
			c0.198,0,0.365-0.157,0.365-0.366v-6.408c0-0.199-0.156-0.367-0.365-0.367V78.749z M71.652,78.729c-3.724,0-6.75-3.561-6.75-7.958
			s3.027-7.958,6.75-7.958c3.723,0,6.75,3.561,6.75,7.958S75.375,78.729,71.652,78.729z"/>
		<path fill="#EE5800" d="M143.947,83.021l-3.275-5.696c-0.104-0.178-0.344-0.23-0.51-0.115c-0.79,0.534-3.068,1.738-5.148,0.765
			c-2.164-1.006-2.101-3.832-2.101-3.832v-8.816h7.362c0.199,0,0.365-0.157,0.365-0.367v-6.46c0-0.198-0.156-0.366-0.365-0.366
			h-7.362v-6.041c0-0.199-0.156-0.367-0.364-0.367h-6.199c-0.197,0-0.363,0.157-0.363,0.367v2.229c0,1.623-0.416,2.723-1.416,3.581
			c-1.186,1.025-2.85,1.204-3.547,1.225c-0.187,0-0.342,0.168-0.342,0.356v5.466c0,0.199,0.155,0.366,0.363,0.366h4.098v8.491
			c0.053,1.174-0.363,7.33,4.141,10.293c6.021,3.969,13.688,0.042,14.582-0.629c0.145-0.114,0.177-0.313,0.093-0.471L143.947,83.021
			z"/>
		<path fill="#EE5800" d="M23.589,83.021l-3.276-5.696c-0.104-0.178-0.343-0.23-0.51-0.115c-0.791,0.534-3.068,1.738-5.148,0.765
			c-2.08-0.975-2.101-3.832-2.101-3.832v-8.816h7.364c0.198,0,0.364-0.157,0.364-0.367v-6.46c0-0.198-0.156-0.366-0.364-0.366
			h-7.364v-6.041c0-0.199-0.156-0.367-0.364-0.367H5.991c-0.197,0-0.364,0.157-0.364,0.367v2.229c0,1.623-0.416,2.723-1.415,3.581
			c-1.186,1.025-2.85,1.204-3.547,1.225c-0.187,0-0.343,0.168-0.343,0.356v5.466c0,0.199,0.156,0.366,0.364,0.366h4.098v8.491
			c0.052,1.174-0.364,7.33,4.14,10.293c6.022,3.969,13.688,0.042,14.582-0.629c0.146-0.114,0.177-0.313,0.094-0.471L23.589,83.021z"
			/>
		<path fill="#EE5800" d="M11.982,31.684V13.078c0-0.199-0.156-0.366-0.364-0.366H4.108c-0.198,0-0.364,0.157-0.364,0.366v26.585
			c0,0.199,0.156,0.366,0.364,0.366h11.628c0.198,0,0.364-0.157,0.364-0.366v-6.408c0-0.199-0.156-0.366-0.364-0.366h-2.559
			C12.512,32.888,11.982,32.344,11.982,31.684z"/>
		<path fill="#EE5800" d="M7.988,8.837c2.838,0,5.138-1.978,5.138-4.418c0-2.44-2.3-4.418-5.138-4.418C5.15,0,2.85,1.979,2.85,4.418
			C2.85,6.859,5.15,8.837,7.988,8.837z"/>
		<path fill="#EE5800" d="M137.229,29.946c-0.125-0.157-0.354-0.167-0.51-0.042c-4.949,4.23-13.521,3.288-14.353-4.125
			c-0.697-6.241,4.171-8.544,7.302-8.555c0.707,0,1.248,0,1.664,0.063c0.593,0.073,1.04,0.597,1.04,1.204v2.104
			c0,0.199,0.166,0.367,0.364,0.367h6.24c0.197,0,0.363-0.167,0.363-0.367v-7.099c0-0.649-0.343-1.256-0.895-1.581
			c-3.807-2.23-9.037-2.774-13.375-1.487c-7.051,2.084-10.733,7.884-10.547,14.638c0.136,4.879,1.248,11.402,9.381,14.051
			c8.779,2.869,15.988-2.429,17.443-3.675c0.156-0.125,0.166-0.356,0.041-0.513l-4.16-4.995V29.946z"/>
		<path fill="#EE5800" d="M79.588,32.888h-1.977c-0.666,0-1.196-0.544-1.196-1.204V10.167c0-0.199-0.155-0.366-0.364-0.366h-6.417
			c-0.198,0-0.364,0.157-0.364,0.366v2.398c-2.132-1.738-4.722-2.764-7.52-2.764c-7.218,0-13.063,6.764-13.063,15.109
			c0,8.345,5.855,15.109,13.063,15.109c3.245,0,6.209-1.372,8.498-3.633v3.277c0,0.199,0.156,0.367,0.364,0.367h8.977
			c0.197,0,0.363-0.157,0.363-0.367v-6.408C79.951,33.056,79.795,32.888,79.588,32.888z M62.904,32.867
			c-3.723,0-6.75-3.56-6.75-7.958c0-4.398,3.027-7.958,6.75-7.958c3.724,0,6.75,3.56,6.75,7.958
			C69.655,29.307,66.628,32.867,62.904,32.867z"/>
		<path fill="#EE5800" d="M112.184,32.888h-1.976c-0.666,0-1.196-0.544-1.196-1.204V10.167c0-0.199-0.156-0.366-0.365-0.366h-6.416
			c-0.198,0-0.364,0.157-0.364,0.366v2.398c-2.132-1.738-4.722-2.764-7.521-2.764c-7.218,0-13.063,6.764-13.063,15.109
			c0,8.345,5.855,15.109,13.063,15.109c3.246,0,6.211-1.372,8.498-3.633v3.277c0,0.199,0.156,0.367,0.364,0.367h8.976
			c0.197,0,0.364-0.157,0.364-0.367v-6.408C112.548,33.056,112.393,32.888,112.184,32.888z M95.5,32.867
			c-3.723,0-6.75-3.56-6.75-7.958c0-4.398,3.027-7.958,6.75-7.958c3.725,0,6.751,3.56,6.751,7.958
			C102.251,29.307,99.225,32.867,95.5,32.867z"/>
		<path fill="#EE5800" d="M35.009,21.967c-4.639-1.937-6.23-2.293-6.22-4.094c0.01-1.675,2.236-2.22,4.337-2.22
			c1.852,0,4.108,0.681,4.171,1.99v1.832c0,0.199,0.156,0.367,0.364,0.367h6.324c0.198,0,0.364-0.157,0.364-0.367v-5.099
			c0-0.523-0.218-1.026-0.613-1.361c-1.332-1.163-4.878-3.602-11.046-3.602c-9.059,0-12.356,4.502-12.356,8.24
			c0,3.058,1.487,6.429,9.132,9.204c6.167,2.251,8.539,3.047,8.258,5.193c-0.229,1.707-2.902,2.22-5.034,2.23
			c-2.132,0-4.795-1.016-4.795-2.544v-1.612c0-0.199-0.156-0.367-0.364-0.367h-6.667c-0.198,0-0.364,0.157-0.364,0.367v4.701
			c0,0.439,0.156,0.858,0.437,1.183c1.207,1.393,5.013,4.785,13.25,4.314c7.281-0.408,11.16-4.701,11.16-8.209
			C45.348,28.082,43.174,25.391,35.009,21.967z"/>
	</g>
</g>
</svg>
