<svg width="144" height="87" viewBox="0 0 144 87" fill="none" xmlns="http://www.w3.org/2000/svg">
<g clip-path="url(#clip0_303_217)">
<path d="M106.921 67.8179C102.282 65.8808 100.691 65.5248 100.701 63.7239C100.712 62.0486 102.937 61.5041 105.038 61.5041C106.89 61.5041 109.147 62.1847 109.209 63.4935V65.3259C109.209 65.5248 109.365 65.6924 109.573 65.6924H115.897C116.094 65.6924 116.261 65.5353 116.261 65.3259V60.2267C116.261 59.7032 116.042 59.2006 115.647 58.8656C114.316 57.7033 110.769 55.2637 104.602 55.2637C95.5424 55.2637 92.2453 59.766 92.2453 63.504C92.2453 66.5614 93.7326 69.933 101.377 72.7077C107.545 74.9588 109.916 75.7546 109.636 77.9011C109.407 79.6078 106.734 80.1208 104.602 80.1313C102.469 80.1313 99.8067 79.1156 99.8067 77.5869V75.9745C99.8067 75.7755 99.6507 75.608 99.4427 75.608H92.7757C92.5781 75.608 92.4117 75.7651 92.4117 75.9745V80.6758C92.4117 81.1155 92.5677 81.5343 92.8486 81.8589C94.0551 83.2515 97.8618 86.644 106.099 86.1728C113.38 85.7645 117.259 81.4715 117.259 77.9639C117.259 73.9327 115.086 71.2418 106.921 67.8179Z" fill="#FF281E"/>
<path d="M39.1384 55.6301C31.0986 55.6301 24.5876 62.4046 24.5876 70.7496C24.5876 79.0947 31.0986 85.8691 39.1384 85.8691C47.1783 85.8691 53.6893 79.0947 53.6893 70.7496C53.6893 62.4046 47.1783 55.6301 39.1384 55.6301ZM39.1384 78.6968C35.2381 78.6968 32.0763 75.1368 32.0763 70.7496C32.0763 66.3625 35.2381 62.8025 39.1384 62.8025C43.0388 62.8025 46.2006 66.3625 46.2006 70.7496C46.2006 75.1368 43.0388 78.6968 39.1384 78.6968Z" fill="#FF281E"/>
<path d="M88.3346 78.7492H86.3584C85.6927 78.7492 85.1623 78.2047 85.1623 77.5451V56.0176C85.1623 55.8187 85.0063 55.6511 84.7983 55.6511H78.3809C78.1833 55.6511 78.0169 55.8082 78.0169 56.0176V58.4154C75.8847 56.6772 73.2949 55.6511 70.4971 55.6511C63.2789 55.6511 57.4336 62.4151 57.4336 70.7602C57.4336 79.1052 63.2893 85.8692 70.4971 85.8692C73.7422 85.8692 76.7064 84.4976 78.9946 82.2359V85.5132C78.9946 85.7121 79.1506 85.8797 79.3586 85.8797H88.3346C88.5322 85.8797 88.6986 85.7226 88.6986 85.5132V79.1052C88.6986 78.9063 88.5426 78.7387 88.3346 78.7387V78.7492ZM71.6516 78.7283C67.9281 78.7283 64.9014 75.1683 64.9014 70.7706C64.9014 66.373 67.9281 62.813 71.6516 62.813C75.3751 62.813 78.4017 66.373 78.4017 70.7706C78.4017 75.1683 75.3751 78.7283 71.6516 78.7283Z" fill="#FF281E"/>
<path d="M143.948 83.0212L140.672 77.3252C140.568 77.1472 140.328 77.0948 140.162 77.21C139.372 77.744 137.094 78.9481 135.014 77.9743C132.85 76.9692 132.913 74.1421 132.913 74.1421V65.3259H140.276C140.474 65.3259 140.641 65.1688 140.641 64.9594V58.4991C140.641 58.3001 140.484 58.1326 140.276 58.1326H132.913V52.0911C132.913 51.8921 132.757 51.7246 132.549 51.7246H126.35C126.152 51.7246 125.986 51.8817 125.986 52.0911V54.3213C125.986 55.9443 125.57 57.0437 124.571 57.9022C123.385 58.9284 121.721 59.1064 121.024 59.1273C120.837 59.1273 120.681 59.2948 120.681 59.4833V64.9489C120.681 65.1479 120.837 65.3154 121.045 65.3154H125.143V73.807C125.195 74.9798 124.779 81.1365 129.283 84.0996C135.305 88.068 142.97 84.1415 143.865 83.4714C144.01 83.3562 144.042 83.1573 143.958 83.0002L143.948 83.0212Z" fill="#FF281E"/>
<path d="M23.5892 83.0212L20.3129 77.3252C20.2089 77.1472 19.9697 77.0948 19.8032 77.21C19.0128 77.744 16.735 78.9481 14.6548 77.9743C12.5746 77.0006 12.5538 74.1421 12.5538 74.1421V65.3259H19.9176C20.1153 65.3259 20.2817 65.1688 20.2817 64.9594V58.4991C20.2817 58.3001 20.1257 58.1326 19.9176 58.1326H12.5538V52.0911C12.5538 51.8921 12.3978 51.7246 12.1898 51.7246H5.99089C5.79327 51.7246 5.62686 51.8817 5.62686 52.0911V54.3213C5.62686 55.9443 5.21082 57.0437 4.21234 57.9022C3.02664 58.9284 1.36251 59.1064 0.665649 59.1273C0.478433 59.1273 0.322418 59.2948 0.322418 59.4833V64.9489C0.322418 65.1479 0.47843 65.3154 0.686447 65.3154H4.78439V73.807C4.8364 74.9798 4.42036 81.1365 8.92393 84.0996C14.946 88.068 22.6115 84.1415 23.506 83.4714C23.6516 83.3562 23.6828 83.1573 23.5996 83.0002L23.5892 83.0212Z" fill="#FF281E"/>
<path d="M11.9818 31.6839V13.0777C11.9818 12.8787 11.8258 12.7112 11.6177 12.7112H4.10832C3.91071 12.7112 3.74429 12.8682 3.74429 13.0777V39.6624C3.74429 39.8614 3.9003 40.0289 4.10832 40.0289H15.7365C15.9341 40.0289 16.1005 39.8719 16.1005 39.6624V33.2544C16.1005 33.0555 15.9445 32.888 15.7365 32.888H13.1779C12.5122 32.888 11.9818 32.3435 11.9818 31.6839Z" fill="#FF281E"/>
<path d="M7.98785 8.83716C10.8255 8.83716 13.1259 6.8589 13.1259 4.41858C13.1259 1.97827 10.8255 0 7.98785 0C5.1502 0 2.84982 1.97827 2.84982 4.41858C2.84982 6.8589 5.1502 8.83716 7.98785 8.83716Z" fill="#FF281E"/>
<path d="M137.229 29.946C137.104 29.7889 136.875 29.7784 136.719 29.9041C131.769 34.1342 123.198 33.1918 122.366 25.7787C121.669 19.5382 126.537 17.2347 129.668 17.2242C130.375 17.2242 130.916 17.2242 131.332 17.287C131.925 17.3603 132.372 17.8839 132.372 18.4911V20.5957C132.372 20.7947 132.538 20.9622 132.736 20.9622H138.976C139.174 20.9622 139.34 20.7947 139.34 20.5957V13.4967C139.34 12.8475 138.997 12.2402 138.446 11.9156C134.639 9.68539 129.408 9.14092 125.07 10.4288C118.019 12.5125 114.337 18.3131 114.524 25.0667C114.659 29.946 115.772 36.4691 123.905 39.1182C132.684 41.9871 139.892 36.689 141.348 35.443C141.504 35.3174 141.514 35.087 141.389 34.93L137.229 29.9355V29.946Z" fill="#FF281E"/>
<path d="M79.5874 32.8882H77.6112C76.9456 32.8882 76.4151 32.3437 76.4151 31.684V10.167C76.4151 9.96807 76.2591 9.80054 76.0511 9.80054H69.6338C69.4362 9.80054 69.2697 9.9576 69.2697 10.167V12.5648C67.1376 10.8267 64.5478 9.80054 61.7499 9.80054C54.5317 9.80054 48.6864 16.5645 48.6864 24.9096C48.6864 33.2546 54.5421 40.0186 61.7499 40.0186C64.995 40.0186 67.9592 38.647 70.2474 36.3853V39.6626C70.2474 39.8616 70.4034 40.0291 70.6115 40.0291H79.5874C79.785 40.0291 79.9514 39.872 79.9514 39.6626V33.2546C79.9514 33.0557 79.7954 32.8882 79.5874 32.8882ZM62.9044 32.8672C59.1809 32.8672 56.1542 29.3072 56.1542 24.9096C56.1542 20.5119 59.1809 16.9519 62.9044 16.9519C66.6279 16.9519 69.6546 20.5119 69.6546 24.9096C69.6546 29.3072 66.6279 32.8672 62.9044 32.8672Z" fill="#FF281E"/>
<path d="M112.184 32.8882H110.208C109.542 32.8882 109.011 32.3437 109.011 31.684V10.167C109.011 9.96807 108.855 9.80054 108.647 9.80054H102.23C102.032 9.80054 101.866 9.9576 101.866 10.167V12.5648C99.7339 10.8267 97.1441 9.80054 94.3462 9.80054C87.128 9.80054 81.2827 16.5645 81.2827 24.9096C81.2827 33.2546 87.1384 40.0186 94.3462 40.0186C97.5913 40.0186 100.556 38.647 102.844 36.3853V39.6626C102.844 39.8616 103 40.0291 103.208 40.0291H112.184C112.381 40.0291 112.548 39.872 112.548 39.6626V33.2546C112.548 33.0557 112.392 32.8882 112.184 32.8882ZM95.5007 32.8672C91.7772 32.8672 88.7506 29.3072 88.7506 24.9096C88.7506 20.5119 91.7772 16.9519 95.5007 16.9519C99.2242 16.9519 102.251 20.5119 102.251 24.9096C102.251 29.3072 99.2242 32.8672 95.5007 32.8672Z" fill="#FF281E"/>
<path d="M35.0093 21.9673C30.3705 20.0302 28.7792 19.6742 28.7896 17.8733C28.8 16.198 31.0258 15.6535 33.1267 15.6535C34.9781 15.6535 37.2351 16.3341 37.2975 17.643V19.4753C37.2975 19.6743 37.4535 19.8418 37.6615 19.8418H43.9852C44.1829 19.8418 44.3493 19.6847 44.3493 19.4753V14.3761C44.3493 13.8526 44.1309 13.35 43.7356 13.015C42.4043 11.8527 38.8576 9.41309 32.6899 9.41309C23.6308 9.41309 20.3337 13.9154 20.3337 17.6534C20.3337 20.7108 21.821 24.0824 29.4656 26.8571C35.6334 29.1082 38.0048 29.904 37.7239 32.0505C37.4951 33.7572 34.8221 34.2702 32.6899 34.2807C30.5577 34.2807 27.8951 33.2651 27.8951 31.7364V30.1239C27.8951 29.9249 27.7391 29.7574 27.5311 29.7574H20.8641C20.6665 29.7574 20.5001 29.9145 20.5001 30.1239V34.8252C20.5001 35.2649 20.6561 35.6838 20.9369 36.0083C22.1434 37.4009 25.9501 40.7934 34.1876 40.3222C41.4682 39.9139 45.3478 35.6209 45.3478 32.1133C45.3478 28.0821 43.174 25.3912 35.0093 21.9673Z" fill="#FF281E"/>
</g>
<defs>
<clipPath id="clip0_303_217">
<rect width="144" height="87" fill="white"/>
</clipPath>
</defs>
</svg>
