<svg width="239" height="31" viewBox="0 0 239 31" fill="none" xmlns="http://www.w3.org/2000/svg">
<g clip-path="url(#clip0_221_1062)">
<path d="M213.123 15.1915C209.888 13.8496 208.772 13.6011 208.784 12.3586C208.792 11.1989 210.349 10.822 211.815 10.822C213.106 10.822 214.679 11.29 214.725 12.1971V13.4644C214.725 13.6011 214.837 13.7129 214.974 13.7129H219.392C219.529 13.7129 219.641 13.6011 219.641 13.4644V9.93574C219.641 9.57128 219.487 9.22752 219.209 8.99145C218.275 8.19212 215.8 6.50234 211.495 6.50234C205.172 6.50234 202.868 9.61269 202.868 12.2012C202.868 14.3176 203.906 16.6452 209.241 18.571C213.546 20.1241 215.203 20.6832 215.007 22.1618C214.85 23.338 212.986 23.7025 211.495 23.7066C210.005 23.7149 208.149 23.0067 208.149 21.9464V20.8282C208.149 20.6915 208.037 20.5797 207.9 20.5797H203.246C203.109 20.5797 202.997 20.6915 202.997 20.8282V24.0794C202.997 24.3817 203.105 24.6716 203.304 24.8994C204.142 25.8603 206.8 28.2044 212.554 27.8855C217.635 27.6039 220.347 24.6302 220.347 22.2032C220.347 19.4159 218.827 17.5522 213.127 15.1832L213.123 15.1915Z" fill="#FF281E"/>
<path d="M165.798 6.76326C160.189 6.76326 155.638 11.4474 155.638 17.225C155.638 23.0025 160.184 27.6867 165.798 27.6867C171.411 27.6867 175.957 23.0025 175.957 17.225C175.957 11.4474 171.411 6.76326 165.798 6.76326ZM165.798 22.7209C163.074 22.7209 160.865 20.2608 160.865 17.225C160.865 14.1892 163.074 11.7291 165.798 11.7291C168.521 11.7291 170.73 14.1892 170.73 17.225C170.73 20.2608 168.521 22.7209 165.798 22.7209Z" fill="#FF281E"/>
<path d="M200.149 22.754H198.766C198.305 22.754 197.932 22.3813 197.932 21.9216V7.02832C197.932 6.89165 197.819 6.77983 197.682 6.77983H193.203C193.066 6.77983 192.954 6.89165 192.954 7.02832V8.68911C191.467 7.48804 189.657 6.77983 187.702 6.77983C182.662 6.77983 178.581 11.4599 178.581 17.2333C178.581 23.0067 182.666 27.6867 187.702 27.6867C189.969 27.6867 192.04 26.7383 193.635 25.1727V27.4382C193.635 27.5749 193.747 27.6867 193.884 27.6867H200.153C200.29 27.6867 200.402 27.5749 200.402 27.4382V23.0067C200.402 22.87 200.29 22.7582 200.153 22.7582L200.149 22.754ZM188.503 22.7375C185.9 22.7375 183.791 20.2732 183.791 17.2333C183.791 14.1933 185.9 11.7291 188.503 11.7291C191.106 11.7291 193.215 14.1933 193.215 17.2333C193.215 20.2732 191.106 22.7375 188.503 22.7375Z" fill="#FF281E"/>
<path d="M238.967 25.7112L236.679 21.7725C236.604 21.6482 236.443 21.6151 236.322 21.6938C235.774 22.0624 234.184 22.8949 232.731 22.2239C231.22 21.5281 231.265 19.5691 231.265 19.5691V13.4727H236.409C236.546 13.4727 236.658 13.3609 236.658 13.2242V8.75538C236.658 8.6187 236.546 8.50688 236.409 8.50688H231.265V4.32385C231.265 4.18717 231.153 4.07535 231.016 4.07535H226.686C226.549 4.07535 226.437 4.18717 226.437 4.32385V5.86453C226.437 6.98691 226.146 7.74482 225.449 8.34122C224.619 9.04943 223.464 9.17368 222.97 9.19025C222.837 9.19439 222.734 9.30621 222.734 9.43875V13.2242C222.734 13.3609 222.846 13.4727 222.983 13.4727H225.843V19.3496C225.877 20.1572 225.594 24.4231 228.729 26.4691C232.934 29.215 238.286 26.4981 238.905 26.0342C239.008 25.9597 239.033 25.8188 238.967 25.7112Z" fill="#FF281E"/>
<path d="M154.945 25.7112L152.657 21.7725C152.583 21.6482 152.421 21.6151 152.3 21.6938C151.752 22.0624 150.162 22.8949 148.709 22.2239C147.198 21.5281 147.244 19.5691 147.244 19.5691V13.4727H152.388C152.525 13.4727 152.637 13.3609 152.637 13.2242V8.75538C152.637 8.6187 152.525 8.50688 152.388 8.50688H147.244V4.32385C147.244 4.18717 147.132 4.07535 146.995 4.07535H142.664C142.527 4.07535 142.415 4.18717 142.415 4.32385V5.86453C142.415 6.98691 142.125 7.74482 141.427 8.34122C140.597 9.04943 139.443 9.17368 138.949 9.19025C138.816 9.19439 138.712 9.30621 138.712 9.43875V13.2242C138.712 13.3609 138.824 13.4727 138.961 13.4727H141.822V19.3496C141.855 20.1572 141.572 24.4231 144.707 26.4691C148.913 29.215 154.264 26.4981 154.883 26.0342C154.987 25.9597 155.011 25.8188 154.945 25.7112Z" fill="#FF281E"/>
<path d="M6.37282 21.9174V9.04943C6.37282 8.91276 6.26073 8.80094 6.12372 8.80094H0.875993C0.738988 8.80094 0.626892 8.91276 0.626892 9.04943V27.4382C0.626892 27.5749 0.738988 27.6867 0.875993 27.6867H8.99669C9.13369 27.6867 9.24579 27.5749 9.24579 27.4382V23.0025C9.24579 22.8659 9.13369 22.754 8.99669 22.754H7.20731C6.74647 22.754 6.37282 22.3813 6.37282 21.9216V21.9174Z" fill="#FF281E"/>
<path d="M3.5829 6.11303C5.56169 6.11303 7.16581 4.74458 7.16581 3.05651C7.16581 1.36845 5.56169 0 3.5829 0C1.60412 0 0 1.36845 0 3.05651C0 4.74458 1.60412 6.11303 3.5829 6.11303Z" fill="#FF281E"/>
<path d="M93.8073 20.7164C93.716 20.6087 93.5582 20.6004 93.4503 20.6915C89.9961 23.6196 84.0093 22.9653 83.4281 17.8421C82.9382 13.5265 86.3426 11.932 88.5264 11.9237C89.0204 11.9237 89.3982 11.9279 89.6888 11.9651C90.104 12.019 90.4154 12.3793 90.4154 12.7976V14.2554C90.4154 14.3963 90.5275 14.5081 90.6686 14.5081H95.0238C95.1649 14.5081 95.277 14.3963 95.277 14.2554V9.34349C95.277 8.89619 95.0404 8.47789 94.6501 8.2501C91.993 6.70942 88.3437 6.33253 85.3171 7.21884C80.3932 8.66012 77.8275 12.6775 77.9562 17.3451C78.0517 20.7205 78.828 25.2349 84.5034 27.0696C90.6313 29.0493 95.6631 25.3923 96.6803 24.5267C96.7841 24.4355 96.7965 24.2782 96.7093 24.1746L93.8073 20.7205V20.7164Z" fill="#FF281E"/>
<path d="M53.5692 22.754H52.1867C51.7258 22.754 51.3522 22.3813 51.3522 21.9216V7.02832C51.3522 6.89165 51.2401 6.77983 51.1031 6.77983H46.6234C46.4864 6.77983 46.3743 6.89165 46.3743 7.02832V8.68911C44.888 7.48804 43.0779 6.77983 41.1224 6.77983C36.0823 6.77983 32.0012 11.4599 32.0012 17.2333C32.0012 23.0067 36.0864 27.6867 41.1224 27.6867C43.3893 27.6867 45.4609 26.7383 47.0552 25.1727V27.4382C47.0552 27.5749 47.1673 27.6867 47.3043 27.6867H53.5733C53.7103 27.6867 53.8224 27.5749 53.8224 27.4382V23.0067C53.8224 22.87 53.7103 22.7582 53.5733 22.7582L53.5692 22.754ZM41.9196 22.7375C39.3165 22.7375 37.2074 20.2732 37.2074 17.2333C37.2074 14.1933 39.3165 11.7291 41.9196 11.7291C44.5227 11.7291 46.6317 14.1933 46.6317 17.2333C46.6317 20.2732 44.5227 22.7375 41.9196 22.7375Z" fill="#FF281E"/>
<path d="M76.3287 22.754H74.9462C74.4854 22.754 74.1117 22.3813 74.1117 21.9216V7.02832C74.1117 6.89165 73.9996 6.77983 73.8626 6.77983H69.3829C69.2459 6.77983 69.1338 6.89165 69.1338 7.02832V8.68911C67.6475 7.48804 65.8374 6.77983 63.882 6.77983C58.8418 6.77983 54.7607 11.4599 54.7607 17.2333C54.7607 23.0067 58.846 27.6867 63.882 27.6867C66.1488 27.6867 68.2205 26.7383 69.8147 25.1727V27.4382C69.8147 27.5749 69.9268 27.6867 70.0638 27.6867H76.3329C76.4699 27.6867 76.582 27.5749 76.582 27.4382V23.0067C76.582 22.87 76.4699 22.7582 76.3329 22.7582L76.3287 22.754ZM64.6832 22.7375C62.0801 22.7375 59.9711 20.2732 59.9711 17.2333C59.9711 14.1933 62.0801 11.7291 64.6832 11.7291C67.2863 11.7291 69.3954 14.1933 69.3954 17.2333C69.3954 20.2732 67.2863 22.7375 64.6832 22.7375Z" fill="#FF281E"/>
<path d="M22.4523 15.1915C19.2182 13.8496 18.1014 13.6011 18.1138 12.3586C18.1221 11.1989 19.679 10.822 21.1445 10.822C22.4357 10.822 24.0092 11.29 24.0549 12.1971V13.4644C24.0549 13.6011 24.167 13.7129 24.304 13.7129H28.7214C28.8584 13.7129 28.9705 13.6011 28.9705 13.4644V9.93574C28.9705 9.57128 28.8169 9.22752 28.5387 8.99145C27.6046 8.19212 25.1302 6.50234 20.8249 6.50234C14.5018 6.50234 12.1977 9.61269 12.1977 12.2012C12.1977 14.3176 13.2356 16.6452 18.5705 18.571C22.8758 20.1241 24.5323 20.6832 24.3372 22.1618C24.1794 23.338 22.3153 23.7025 20.8249 23.7066C19.3344 23.7149 17.4786 23.0067 17.4786 21.9464V20.8282C17.4786 20.6915 17.3665 20.5797 17.2295 20.5797H12.5755C12.4385 20.5797 12.3264 20.6915 12.3264 20.8282V24.0794C12.3264 24.3817 12.4343 24.6716 12.6336 24.8994C13.4722 25.8603 16.1293 28.2044 21.8835 27.8855C26.9652 27.6039 29.6763 24.6302 29.6763 22.2032C29.6763 19.4159 28.1567 17.5522 22.4565 15.1832L22.4523 15.1915Z" fill="#FF281E"/>
<path d="M113.511 15.1169C114.802 15.1169 115.849 14.073 115.849 12.7852C115.849 11.4974 114.802 10.4534 113.511 10.4534C112.22 10.4534 111.174 11.4974 111.174 12.7852C111.174 14.073 112.22 15.1169 113.511 15.1169Z" fill="#FF281E"/>
<path d="M122.06 15.1169C123.35 15.1169 124.397 14.073 124.397 12.7852C124.397 11.4974 123.35 10.4534 122.06 10.4534C120.769 10.4534 119.722 11.4974 119.722 12.7852C119.722 14.073 120.769 15.1169 122.06 15.1169Z" fill="#FF281E"/>
<path d="M132.127 6.99933C129.304 6.61416 127.075 4.38597 126.689 1.57381C126.626 1.10995 126.244 0.757915 125.779 0.757915H108.554C105.283 0.757915 102.63 3.40441 102.63 6.668V29.3641C102.63 30.2711 103.364 31.0041 104.274 31.0041H131.305C132.215 31.0041 132.949 30.2711 132.949 29.3641V7.90635C132.949 7.43834 132.597 7.06146 132.132 6.99933H132.127ZM113.511 7.86493C115.342 7.86493 116.936 8.86306 117.787 10.3375C118.639 8.85892 120.233 7.86493 122.064 7.86493C124.787 7.86493 126.996 10.0683 126.996 12.7852C126.996 15.5021 124.787 17.7054 122.064 17.7054C120.233 17.7054 118.639 16.7073 117.787 15.2329C116.936 16.7114 115.342 17.7054 113.511 17.7054C110.788 17.7054 108.579 15.5021 108.579 12.7852C108.579 10.0683 110.788 7.86493 113.511 7.86493ZM130.678 20.2235L129.084 22.1576C129.034 22.2198 128.943 22.2281 128.881 22.1784L127.855 21.3376C127.801 21.292 127.718 21.2962 127.664 21.3459C125.036 23.8723 121.624 25.2017 117.704 25.2017C112.918 25.2017 108.828 23.1682 106.105 19.4615C106.063 19.4035 106.076 19.3248 106.13 19.2792L108.102 17.6888C108.16 17.6433 108.243 17.6557 108.288 17.7137C110.497 20.7826 113.74 22.4061 117.704 22.4061C121.308 22.4061 124.368 21.0353 126.556 18.4426L127.353 17.4983C127.403 17.4362 127.494 17.4279 127.556 17.4818L130.658 20.0206C130.72 20.0703 130.728 20.1614 130.678 20.2235Z" fill="#FF281E"/>
</g>
<defs>
<clipPath id="clip0_221_1062">
<rect width="239" height="31" fill="white"/>
</clipPath>
</defs>
</svg>
